# xmcd CD database file
#
# Track frame offsets:
#	150
#	22493
#	37185
#	49043
#	74500
#	101383
#	116833
#	136338
#	153818
#	175998
#
# Disc length: 2546 seconds
#
# Revision: 0
# Processed by: cddbd v1.4PL0 Copyright (c) Steve Scherf et al.
# Submitted via: CDex 1.40Beta8
#
DISCID=8e09f00a
DTITLE=Norman Nardini - this ole train
DYEAR=1991
DGENRE=Blues
TTITLE0=good rockin` man
TTITLE1=playin` with fire
TTITLE2=gonna send you back
TTITLE3=smoke two joints
TTITLE4=please don´t talk about me
TTITLE5=this ole train
TTITLE6=just like a woman
TTITLE7=minnimum wage
TTITLE8=sick and tired
TTITLE9=over said and done
EXTD=YEAR: 1991 ID3G: 0
EXTT0=
EXTT1=
EXTT2=
EXTT3=
EXTT4=
EXTT5=
EXTT6=
EXTT7=
EXTT8=
EXTT9=
PLAYORDER=
